<svg width="290" height="290" viewBox="0 0 290 290" fill="none" xmlns="http://www.w3.org/2000/svg">
<rect x="11" y="11" width="267.676" height="267.676" rx="133.838" fill="#FBF7EC"/>
<rect x="11" y="11" width="267.676" height="267.676" rx="133.838" stroke="#006039" stroke-width="22"/>
<mask id="mask0_248_2" style="mask-type:alpha" maskUnits="userSpaceOnUse" x="-6" y="-6" width="301" height="301">
<rect x="-5.14893" y="-5.16138" width="300" height="300" fill="#829E5B"/>
</mask>
<g mask="url(#mask0_248_2)">
<path d="M124.85 159.193L181.59 102.453C184.177 99.8658 187.264 98.5725 190.85 98.5725C194.437 98.5725 197.524 99.8658 200.11 102.453C202.699 105.039 203.993 108.15 203.993 111.785C203.993 115.418 202.699 118.528 200.11 121.115L134.253 187.115C131.593 189.775 128.459 191.105 124.85 191.105C121.242 191.105 118.108 189.775 115.448 187.115L89.448 161.115C86.8613 158.528 85.5913 155.418 85.638 151.785C85.6846 148.15 87.0021 145.039 89.5905 142.453C92.1771 139.866 95.2871 138.573 98.9205 138.573C102.555 138.573 105.666 139.866 108.253 142.453L124.85 159.193Z" fill="#006039"/>
</g>
</svg>
