<svg width="122" height="133" viewBox="0 0 122 133" fill="none" xmlns="http://www.w3.org/2000/svg">
<mask id="mask0_203_654" style="mask-type:alpha" maskUnits="userSpaceOnUse" x="0" y="0" width="100" height="100">
<rect x="0.749023" y="0.102173" width="121" height="132" fill="#185D45"/>
</mask>
<g mask="url(#mask0_203_654)">
<path d="M20.1647 114.055C17.4046 114.055 15.0418 112.988 13.0762 110.853C11.1107 108.719 10.1279 106.153 10.1279 103.155V26.857C10.1279 23.8596 11.1107 21.2936 13.0762 19.1591C15.0418 17.0245 17.4046 15.9573 20.1647 15.9573H100.459C103.219 15.9573 105.582 17.0245 107.548 19.1591C109.513 21.2936 110.496 23.8596 110.496 26.857V103.155C110.496 106.153 109.513 108.719 107.548 110.853C105.582 112.988 103.219 114.055 100.459 114.055H20.1647ZM20.1647 103.155H100.459V26.857H20.1647V103.155ZM45.2568 92.2555C46.6787 92.2555 47.8705 91.7332 48.8324 90.6886C49.7942 89.6441 50.2752 88.3497 50.2752 86.8056C50.2752 85.2615 49.7942 83.9671 48.8324 82.9226C47.8705 81.878 46.6787 81.3557 45.2568 81.3557H30.2016C28.7797 81.3557 27.5878 81.878 26.6259 82.9226C25.6641 83.9671 25.1831 85.2615 25.1831 86.8056C25.1831 88.3497 25.6641 89.6441 26.6259 90.6886C27.5878 91.7332 28.7797 92.2555 30.2016 92.2555H45.2568ZM73.1089 65.9598L69.4706 62.0087C68.4669 60.9187 67.2959 60.3964 65.9577 60.4419C64.6195 60.4873 63.4485 61.055 62.4448 62.1449C61.5248 63.2349 61.0438 64.5065 61.002 65.9598C60.9602 67.4131 61.4411 68.6848 62.4448 69.7748L69.596 77.5408C70.5997 78.6308 71.7707 79.1758 73.1089 79.1758C74.4472 79.1758 75.6181 78.6308 76.6218 77.5408L94.4372 58.1938C95.4408 57.1038 95.9427 55.8322 95.9427 54.3789C95.9427 52.9256 95.4408 51.6539 94.4372 50.564C93.4335 49.474 92.2416 48.929 90.8615 48.929C89.4815 48.929 88.2896 49.474 87.2859 50.564L73.1089 65.9598ZM45.2568 70.456C46.6787 70.456 47.8705 69.9337 48.8324 68.8892C49.7942 67.8446 50.2752 66.5503 50.2752 65.0061C50.2752 63.462 49.7942 62.1676 48.8324 61.1231C47.8705 60.0785 46.6787 59.5562 45.2568 59.5562H30.2016C28.7797 59.5562 27.5878 60.0785 26.6259 61.1231C25.6641 62.1676 25.1831 63.462 25.1831 65.0061C25.1831 66.5503 25.6641 67.8446 26.6259 68.8892C27.5878 69.9337 28.7797 70.456 30.2016 70.456H45.2568ZM45.2568 48.6565C46.6787 48.6565 47.8705 48.1342 48.8324 47.0897C49.7942 46.0451 50.2752 44.7508 50.2752 43.2066C50.2752 41.6625 49.7942 40.3682 48.8324 39.3236C47.8705 38.279 46.6787 37.7568 45.2568 37.7568H30.2016C28.7797 37.7568 27.5878 38.279 26.6259 39.3236C25.6641 40.3682 25.1831 41.6625 25.1831 43.2066C25.1831 44.7508 25.6641 46.0451 26.6259 47.0897C27.5878 48.1342 28.7797 48.6565 30.2016 48.6565H45.2568Z" fill="#006039"/>
</g>
</svg>
