<svg width="290" height="290" viewBox="0 0 290 290" fill="none" xmlns="http://www.w3.org/2000/svg">
<rect x="11" y="11" width="267.676" height="267.676" rx="133.838" fill="#FBF7EC"/>
<rect x="11" y="11" width="267.676" height="267.676" rx="133.838" stroke="#006039" stroke-width="22"/>
<mask id="mask0_255_16" style="mask-type:alpha" maskUnits="userSpaceOnUse" x="-6" y="-6" width="301" height="301">
<rect x="-5.14893" y="-5.16138" width="300" height="300" fill="#829E5B"/>
</mask>
<g mask="url(#mask0_255_16)">
<path d="M144.9 162.451L115.413 191.87C113.052 194.232 110.098 195.423 106.552 195.446C103.003 195.468 100.026 194.276 97.6201 191.87C95.2589 189.509 94.0783 186.543 94.0783 182.972C94.0783 179.403 95.2589 176.438 97.6201 174.077L127.04 144.591L97.6201 115.384C95.2589 113.022 94.0671 110.068 94.0447 106.522C94.0224 102.974 95.2142 99.9964 97.6201 97.5904C99.9814 95.2292 102.947 94.0486 106.518 94.0486C110.087 94.0486 113.052 95.2292 115.413 97.5904L144.9 127.01L174.107 97.5904C176.468 95.2292 179.433 94.0486 183.002 94.0486C186.573 94.0486 189.539 95.2292 191.9 97.5904C194.405 100.093 195.657 103.095 195.657 106.595C195.657 110.093 194.405 113.022 191.9 115.384L162.481 144.591L191.9 174.077C194.261 176.438 195.442 179.403 195.442 182.972C195.442 186.543 194.261 189.509 191.9 191.87C189.397 194.375 186.396 195.627 182.896 195.627C179.398 195.627 176.468 194.375 174.107 191.87L144.9 162.451Z" fill="#006039"/>
</g>
</svg>
