<svg width="133" height="133" viewBox="0 0 133 133" fill="none" xmlns="http://www.w3.org/2000/svg">
<mask id="mask0_203_658" style="mask-type:alpha" maskUnits="userSpaceOnUse" x="0" y="0" width="100" height="100">
<rect x="0.250977" y="0.9021" width="132" height="132" fill="#185D45"/>
</mask>
<g mask="url(#mask0_203_658)">
<path d="M47.249 75.2272L54.7766 80.2683L62.8517 76.1809C63.5816 75.7268 64.4028 75.4997 65.3152 75.4997C66.2277 75.4997 67.0489 75.7268 67.7788 76.1809L75.8539 80.2683L83.1078 75.4997L77.6331 64.7362H52.4499L47.249 75.2272ZM28.2247 107.245H102.269L88.0349 85.3094L79.2755 91.1681C78.4543 91.713 77.5647 92.0082 76.6066 92.0537C75.6486 92.0991 74.7133 91.8947 73.8009 91.4406L65.3152 87.2169L56.8296 91.4406C55.9171 91.8947 54.9819 92.0764 54.0238 91.9855C53.0658 91.8947 52.1761 91.5768 51.3549 91.0318L42.3218 85.1732L28.2247 107.245ZM19.3284 118.145C17.2298 118.145 15.6558 117.282 14.6065 115.556C13.5572 113.83 13.4888 112.059 14.4012 110.243L42.5955 59.9675C43.508 58.1509 44.8538 56.6749 46.6331 55.5395C48.4123 54.4041 50.3513 53.8364 52.4499 53.8364H59.8406V26.5871C59.8406 25.0429 60.3653 23.7486 61.4146 22.704C62.4639 21.6595 63.7641 21.1372 65.3152 21.1372H93.7833C94.787 21.1372 95.5625 21.5687 96.11 22.4316C96.6575 23.2944 96.7031 24.1801 96.2469 25.0884L93.2358 30.8107C93.0533 31.2649 92.9621 31.6736 92.9621 32.037C92.9621 32.4003 93.0533 32.809 93.2358 33.2632L96.2469 38.9855C96.7031 39.8938 96.6575 40.7795 96.11 41.6423C95.5625 42.5052 94.787 42.9367 93.7833 42.9367H70.7899V53.8364H77.6331C79.7317 53.8364 81.6479 54.3814 83.3815 55.4714C85.1151 56.5614 86.4838 58.0147 87.4875 59.8313L116.092 110.243C117.005 112.059 116.936 113.83 115.887 115.556C114.838 117.282 113.264 118.145 111.165 118.145H19.3284Z" fill="#006039"/>
</g>
</svg>
